<svg xmlns="http://www.w3.org/2000/svg" viewBox="0 0 900 520" font-family="'Segoe UI', system-ui, sans-serif">
  <defs>
    <linearGradient id="bg2" x1="0%" y1="0%" x2="100%" y2="100%">
      <stop offset="0%" style="stop-color:#0f1117"/>
      <stop offset="100%" style="stop-color:#1a1d2e"/>
    </linearGradient>
  </defs>

  <rect width="900" height="520" fill="url(#bg2)" rx="12"/>

  <!-- Title -->
  <text x="450" y="40" text-anchor="middle" fill="#ffffff" font-size="20" font-weight="700">BuildConfig Anatomy</text>
  <text x="450" y="60" text-anchor="middle" fill="#4fc3f7" font-size="12">Key sections and what they control</text>

  <!-- Central BuildConfig box -->
  <rect x="340" y="90" width="220" height="60" rx="10" fill="#cc0000" stroke="#ff6b6b" stroke-width="2"/>
  <text x="450" y="118" text-anchor="middle" fill="#fff" font-size="15" font-weight="700">BuildConfig</text>
  <text x="450" y="137" text-anchor="middle" fill="#ffcccc" font-size="11">ruby-ex</text>

  <!-- ── SOURCE section (left top) ── -->
  <rect x="40" y="90" width="220" height="100" rx="8" fill="#1a2a1a" stroke="#4caf50" stroke-width="1.5"/>
  <rect x="40" y="90" width="220" height="28" rx="8" fill="#2e7d32"/>
  <text x="150" y="109" text-anchor="middle" fill="#fff" font-size="12" font-weight="700">📂 source</text>
  <text x="150" y="135" text-anchor="middle" fill="#81c784" font-size="11">Where is the code?</text>
  <text x="150" y="153" text-anchor="middle" fill="#aaa" font-size="10">git.uri: github.com/KadirSoft/</text>
  <text x="150" y="168" text-anchor="middle" fill="#aaa" font-size="10">       ruby-ex.git</text>
  <!-- connector -->
  <line x1="262" y1="140" x2="338" y2="130" stroke="#4caf50" stroke-width="1.5" stroke-dasharray="4,3"/>

  <!-- ── STRATEGY section (left bottom) ── -->
  <rect x="40" y="220" width="220" height="110" rx="8" fill="#1a1a2e" stroke="#7c4dff" stroke-width="1.5"/>
  <rect x="40" y="220" width="220" height="28" rx="8" fill="#4527a0"/>
  <text x="150" y="239" text-anchor="middle" fill="#fff" font-size="12" font-weight="700">🔧 strategy</text>
  <text x="150" y="265" text-anchor="middle" fill="#b39ddb" font-size="11">How to build?</text>
  <text x="150" y="282" text-anchor="middle" fill="#aaa" font-size="10">type: Source (S2I)</text>
  <text x="150" y="297" text-anchor="middle" fill="#aaa" font-size="10">from: ruby:3.0-ubi9</text>
  <text x="150" y="312" text-anchor="middle" fill="#aaa" font-size="10">namespace: openshift</text>
  <!-- connector -->
  <line x1="262" y1="275" x2="338" y2="150" stroke="#7c4dff" stroke-width="1.5" stroke-dasharray="4,3"/>

  <!-- ── OUTPUT section (right top) ── -->
  <rect x="640" y="90" width="220" height="100" rx="8" fill="#1a2233" stroke="#0288d1" stroke-width="1.5"/>
  <rect x="640" y="90" width="220" height="28" rx="8" fill="#01579b"/>
  <text x="750" y="109" text-anchor="middle" fill="#fff" font-size="12" font-weight="700">📤 output</text>
  <text x="750" y="135" text-anchor="middle" fill="#81d4fa" font-size="11">Where to push image?</text>
  <text x="750" y="153" text-anchor="middle" fill="#aaa" font-size="10">kind: ImageStreamTag</text>
  <text x="750" y="168" text-anchor="middle" fill="#aaa" font-size="10">name: ruby-ex:latest</text>
  <!-- connector -->
  <line x1="638" y1="140" x2="562" y2="130" stroke="#0288d1" stroke-width="1.5" stroke-dasharray="4,3"/>

  <!-- ── TRIGGERS section (right bottom) ── -->
  <rect x="640" y="220" width="220" height="130" rx="8" fill="#2a1500" stroke="#ef7b4d" stroke-width="1.5"/>
  <rect x="640" y="220" width="220" height="28" rx="8" fill="#e65100"/>
  <text x="750" y="239" text-anchor="middle" fill="#fff" font-size="12" font-weight="700">⚡ triggers</text>
  <text x="750" y="265" text-anchor="middle" fill="#ffcc80" font-size="11">What starts a build?</text>
  <text x="750" y="283" text-anchor="middle" fill="#aaa" font-size="10">ConfigChange → on YAML edit</text>
  <text x="750" y="298" text-anchor="middle" fill="#aaa" font-size="10">ImageChange → base img update</text>
  <text x="750" y="313" text-anchor="middle" fill="#aaa" font-size="10">GitHub → on git push</text>
  <text x="750" y="328" text-anchor="middle" fill="#aaa" font-size="10">Generic → any webhook</text>
  <!-- connector -->
  <line x1="638" y1="275" x2="562" y2="150" stroke="#ef7b4d" stroke-width="1.5" stroke-dasharray="4,3"/>

  <!-- ── HISTORY section (center bottom) ── -->
  <rect x="340" y="360" width="220" height="90" rx="8" fill="#1a1a1a" stroke="#607d8b" stroke-width="1.5"/>
  <rect x="340" y="360" width="220" height="28" rx="8" fill="#37474f"/>
  <text x="450" y="379" text-anchor="middle" fill="#fff" font-size="12" font-weight="700">📋 history &amp; policy</text>
  <text x="450" y="402" text-anchor="middle" fill="#b0bec5" font-size="10">failedBuildsHistoryLimit: 5</text>
  <text x="450" y="417" text-anchor="middle" fill="#b0bec5" font-size="10">successfulBuildsHistoryLimit: 5</text>
  <text x="450" y="432" text-anchor="middle" fill="#b0bec5" font-size="10">runPolicy: Serial</text>
  <!-- connector -->
  <line x1="450" y1="152" x2="450" y2="358" stroke="#607d8b" stroke-width="1.5" stroke-dasharray="4,3"/>

  <!-- Build Flow at bottom -->
  <rect x="40" y="470" width="820" height="35" rx="8" fill="#ffffff08" stroke="#ffffff15" stroke-width="1"/>
  <text x="450" y="483" text-anchor="middle" fill="#4fc3f7" font-size="11" font-weight="600">Build Flow:</text>
  <text x="450" y="497" text-anchor="middle" fill="#888" font-size="11">Trigger fires → Build object created → Build Pod spawned → S2I assemble → Image pushed → ImageStream updated</text>
</svg>
